<mxfile host="app.diagrams.net" modified="2023-07-17T11:23:16.780Z" agent="Mozilla/5.0 (Macintosh; Intel Mac OS X 10_15_7) AppleWebKit/537.36 (KHTML, like Gecko) Chrome/111.0.0.0 Safari/537.36" version="21.6.2" etag="Hx6T06jUBFs4yO0xxrca" type="github">
  <diagram name="第 1 页" id="ScP6ju7StNjAD7CTot_E">
    <mxGraphModel>
      <root>
        <mxCell id="0" />
        <mxCell id="1" parent="0" />
      </root>
    </mxGraphModel>
  </diagram>
</mxfile>
